<?xml version="1.0" encoding="utf-8"?>
<!-- Generator: Adobe Illustrator 26.2.1, SVG Export Plug-In . SVG Version: 6.00 Build 0)  -->
<svg version="1.1" id="Ebene_1" xmlns="http://www.w3.org/2000/svg" xmlns:xlink="http://www.w3.org/1999/xlink" x="0px" y="0px"
	 viewBox="0 0 294.3 55.2" style="enable-background:new 0 0 294.3 55.2;" xml:space="preserve">
<style type="text/css">
	.st0{fill:#565656;}
	.st1{fill:#0EA039;}
</style>
<g>
	<path class="st0" d="M213.9,54.7h4.1V34.1h0.1l7.8,20.5h5.2V27.8H227v20h-0.1l-7.8-20h-5.2V54.7z M191.1,54.7h4.3V42.2h7.9v12.5
		h4.3V27.8h-4.3v10.8h-7.9V27.8h-4.3V54.7z M176.5,52c-2.6,0-4.6-1.6-4.6-10.8c0-9,2-10.6,4.6-10.6c2.6,0,4.6,1.6,4.6,10.6
		C181.1,50.4,179.1,52,176.5,52 M176.5,55.2c6.2,0,8.9-4.4,8.9-14c0-9.6-2.7-14-8.9-14c-6.2,0-8.9,4.4-8.9,14
		C167.6,50.8,170.3,55.2,176.5,55.2 M145.9,46.4V47c0,3.8,1.5,8.2,8.2,8.2c5.4,0,8.9-2.4,8.9-8.1c0-3.7-1.7-5.8-5.5-7.1l-2.9-1.1
		c-2.9-1.1-4-2.3-4-4.6c0-2.9,1.8-3.9,3.6-3.9c2.7,0,3.8,1.4,3.8,3.9V35h4.3v-0.6c0-2.8-0.7-7.1-7.6-7.1c-5,0-8.3,2.7-8.3,7.6
		c0,3.8,1.8,6.1,5.8,7.4l2.9,1c2.4,0.8,3.7,2,3.7,4.7c0,2-1.4,3.9-4.1,3.9c-2.9,0-4.4-1.7-4.4-4.9v-0.7H145.9z M112.5,54.7h4.1V34.1
		h0.1l7.8,20.5h5.2V27.8h-4.1v20h-0.1l-7.8-20h-5.2V54.7z M92.5,54.7h14.8v-3.6H96.8v-8.6h9.6v-3.6h-9.6v-7.5H107v-3.6H92.5V54.7z
		 M73.4,54.7h14.7v-3.6H77.7V27.8h-4.3V54.7z M51.1,54.7h4.3V42.2h7.9v12.5h4.3V27.8h-4.3v10.8h-7.9V27.8h-4.3V54.7z M32,25h3.6
		v-4.1H32V25z M38.3,25h3.6v-4.1h-3.6V25z M28.7,27.8v18.9c0,6.2,3.1,8.5,8.2,8.5c5.1,0,8.2-2.3,8.2-8.5V27.8h-4.3v19.3
		c0,3.4-1.4,4.9-3.9,4.9c-2.6,0-4-1.5-4-4.9V27.8H28.7z M0,54.7h4.1V32.3h0.1l5.4,22.3h3.6l5.4-22.3h0.1v22.3h4.1V27.8h-6.5
		l-4.7,19.9h-0.1L6.7,27.8H0V54.7z"/>
	<g>
		<path class="st1" d="M272.2,34.4l2.2,2.2L279,32l2.3,2.4l-5.6,5.6l5.8,5.7l-2.6,2.6l-2.6-2.6c0,0,1.6,7.6,1.7,8.1
			c0.2,0.5,0.5,0.3,1.2,0.4c0.7,0.1,0.7,0.2,1,0.5c0.3,0.3,0.5,0.4,0.5,0.4l10.3,0c0.2-0.1,0.6,0.1,0.6-1.3c0-2.1-3.3-1.5-5.3-2.4
			c-1.2-0.5-4.2-19.4-4.2-19.4l6,6l6.1-6.1l-13.2-13.2l13.1-13.1L288.4,0l-11,11l-5.2-5.2h-0.1l-5.2,5.2l-11-11l-5.7,5.8l13.1,13.1
			L250,32.1l6.1,6.1l6-6c0,0-3.1,18.8-4.2,19.4c-2,0.9-5.3,0.4-5.3,2.4c0,1.4,0.4,1.2,0.6,1.3l10.3,0c0,0,0.2-0.1,0.5-0.4
			c0.3-0.3,0.3-0.4,1-0.5c0.7,0,1.1,0.1,1.2-0.4c0.2-0.5,1.7-8.1,1.7-8.1l-2.6,2.6l-2.6-2.6l5.8-5.7l-5.6-5.6l2.3-2.4l4.6,4.6
			l2.2-2.2H272.2z"/>
	</g>
</g>
</svg>
